<svg width="32" height="33" viewBox="0 0 32 33" fill="none" xmlns="http://www.w3.org/2000/svg">
<g id="WhatsApp">
<rect id="Rectangle" y="0.449219" width="32" height="32" rx="16" fill="#0DC143"/>
<path id="Vector" d="M23.1671 9.25704C21.4518 7.49127 19.0806 6.53271 16.659 6.53271C11.5131 6.53271 7.37613 10.7201 7.42658 15.8156C7.42658 17.43 7.88064 18.994 8.6374 20.4066L7.32568 25.1994L12.2194 23.9381C13.5815 24.6949 15.0951 25.048 16.6086 25.048C21.7041 25.048 25.841 20.8606 25.841 15.7651C25.841 13.2931 24.8824 10.9724 23.1671 9.25704ZM16.659 23.4841C15.2969 23.4841 13.9347 23.1309 12.7743 22.4246L12.4716 22.2733L9.5455 23.03L10.3023 20.1543L10.1005 19.8516C7.88064 16.2697 8.9401 11.5273 12.5725 9.30749C16.205 7.08767 20.8969 8.14713 23.1167 11.7796C25.3365 15.412 24.277 20.1039 20.6446 22.3237C19.4842 23.0805 18.0716 23.4841 16.659 23.4841ZM21.0987 17.8841L20.5437 17.6318C20.5437 17.6318 19.7365 17.2787 19.232 17.0264C19.1815 17.0264 19.1311 16.976 19.0806 16.976C18.9293 16.976 18.8284 17.0264 18.7275 17.0769C18.7275 17.0769 18.677 17.1273 17.9707 17.9345C17.9203 18.0354 17.8194 18.0859 17.7185 18.0859H17.668C17.6176 18.0859 17.5167 18.0354 17.4662 17.985L17.214 17.8841C16.659 17.6318 16.1545 17.3291 15.7509 16.9255C15.65 16.8246 15.4987 16.7237 15.3978 16.6228C15.0446 16.2697 14.6914 15.866 14.4392 15.412L14.3887 15.3111C14.3383 15.2606 14.3383 15.2102 14.2878 15.1093C14.2878 15.0084 14.2878 14.9075 14.3383 14.857C14.3383 14.857 14.5401 14.6048 14.6914 14.4534C14.7924 14.3525 14.8428 14.2012 14.9437 14.1003C15.0446 13.9489 15.0951 13.7471 15.0446 13.5958C14.9942 13.3435 14.3887 11.9814 14.2374 11.6787C14.1365 11.5273 14.0356 11.4769 13.8842 11.4264H13.7329C13.632 11.4264 13.4806 11.4264 13.3293 11.4264C13.2284 11.4264 13.1275 11.4769 13.0266 11.4769L12.9761 11.5273C12.8752 11.5778 12.7743 11.6787 12.6734 11.7291C12.5725 11.83 12.5221 11.9309 12.4212 12.0318C12.068 12.4859 11.8662 13.0408 11.8662 13.5958C11.8662 13.9994 11.9671 14.403 12.1185 14.7561L12.1689 14.9075C12.623 15.866 13.2284 16.7237 14.0356 17.4805L14.2374 17.6823C14.3887 17.8336 14.5401 17.9345 14.641 18.0859C15.7005 18.994 16.9113 19.6498 18.2734 20.003C18.4248 20.0534 18.6266 20.0534 18.7779 20.1039C18.9293 20.1039 19.1311 20.1039 19.2824 20.1039C19.5347 20.1039 19.8374 20.003 20.0392 19.9021C20.1905 19.8012 20.2914 19.8012 20.3924 19.7003L20.4933 19.5994C20.5942 19.4985 20.6951 19.448 20.796 19.3471C20.8969 19.2462 20.9978 19.1453 21.0482 19.0444C21.1491 18.8426 21.1996 18.5904 21.25 18.3381C21.25 18.2372 21.25 18.0859 21.25 17.985C21.25 17.985 21.1996 17.9345 21.0987 17.8841Z" fill="white"/>
</g>
</svg>
