<svg width="32" height="33" viewBox="0 0 32 33" fill="none" xmlns="http://www.w3.org/2000/svg">
<g id="Telegram">
<rect id="Rectangle" y="0.449219" width="32" height="32" rx="16" fill="#419FD9"/>
<path id="Exclude" fill-rule="evenodd" clip-rule="evenodd" d="M19.557 24.3721C20.6753 24.8614 21.0947 23.8362 21.0947 23.8362L24.0536 8.97162C24.0303 7.96977 22.679 8.57554 22.679 8.57554L6.11361 15.0759C6.11361 15.0759 5.32145 15.3555 5.39135 15.8447C5.46124 16.334 6.09031 16.567 6.09031 16.567L10.2608 17.9649C10.2608 17.9649 11.5189 22.0888 11.7752 22.881C12.0082 23.6498 12.2179 23.6731 12.2179 23.6731C12.4509 23.7663 12.6606 23.6032 12.6606 23.6032L15.3632 21.1569L19.557 24.3721ZM20.2793 11.6039C20.2793 11.6039 20.8617 11.2544 20.8384 11.6039C20.8384 11.6039 20.9316 11.6505 20.6287 11.9767C20.3492 12.2563 13.7556 18.1741 12.8703 18.9663C12.8004 19.0129 12.7538 19.0828 12.7538 19.176L12.4975 21.3661C12.4509 21.5991 12.148 21.6224 12.0781 21.4127L10.9831 17.8247C10.9365 17.6849 10.9831 17.5218 11.1229 17.4286L20.2793 11.6039Z" fill="white"/>
</g>
</svg>
