<svg width="32" height="33" viewBox="0 0 32 33" fill="none" xmlns="http://www.w3.org/2000/svg">
<g id="Viber">
<rect id="Rectangle" y="0.449219" width="32" height="32" rx="16" fill="#675DA9"/>
<g id="Group">
<path id="Vector" d="M23.8357 8.57209C23.3064 8.08551 21.1638 6.5276 16.3876 6.50626C16.3876 6.50626 10.7579 6.1648 8.01339 8.68306C6.48536 10.2111 5.94756 12.4434 5.89208 15.2177C5.83659 17.9878 5.76403 23.1822 10.7707 24.5907H10.7749L10.7707 26.7377C10.7707 26.7377 10.7408 27.6084 11.3127 27.7834C12.0042 27.9968 12.4139 27.3352 13.0755 26.6224C13.4383 26.2297 13.9377 25.6578 14.3176 25.2182C17.7407 25.5041 20.3742 24.8468 20.6729 24.7487C21.3644 24.5225 25.2784 24.0231 25.9143 18.8286C26.5716 13.4848 25.5942 10.1001 23.8357 8.57209ZM24.4162 18.453C23.8784 22.7896 20.7071 23.0627 20.1223 23.2505C19.8748 23.3316 17.5614 23.9078 14.6505 23.7158C14.6505 23.7158 12.4822 26.3322 11.8078 27.0108C11.7011 27.1175 11.5774 27.1602 11.4963 27.1389C11.381 27.109 11.3469 26.9724 11.3511 26.7718C11.3511 26.4816 11.3682 23.1993 11.3682 23.1993C11.3639 23.1993 11.3639 23.1993 11.3682 23.1993C7.12986 22.0255 7.37742 17.6037 7.42437 15.2903C7.47132 12.9769 7.90668 11.0775 9.19995 9.80133C11.5176 7.70137 16.3023 8.01295 16.3023 8.01295C20.34 8.03002 22.2735 9.24646 22.7217 9.65195C24.2113 10.9324 24.9711 13.9842 24.4162 18.453Z" fill="white"/>
<path id="Vector_2" d="M18.3553 15.3715C18.2145 15.3715 18.095 15.2606 18.0864 15.1154C18.0395 14.1978 17.6084 13.7496 16.7291 13.7027C16.5797 13.6941 16.4645 13.5661 16.473 13.4167C16.4816 13.2673 16.6096 13.1521 16.759 13.1606C17.92 13.2246 18.5687 13.8905 18.6285 15.0856C18.637 15.235 18.5218 15.363 18.3724 15.3673C18.3639 15.3715 18.3596 15.3715 18.3553 15.3715Z" fill="white"/>
<path id="Vector_3" d="M19.7382 15.8327H19.7339C19.5845 15.8285 19.465 15.7047 19.4693 15.5553C19.4906 14.6334 19.226 13.8864 18.6626 13.2718C18.1035 12.6572 17.3309 12.3243 16.3108 12.2517C16.1614 12.2389 16.0505 12.1108 16.0633 11.9615C16.0761 11.8121 16.2041 11.7011 16.3535 11.7139C17.5059 11.7993 18.4151 12.2005 19.0638 12.909C19.7169 13.6218 20.0327 14.5139 20.0114 15.5681C20.0071 15.7175 19.8833 15.8327 19.7382 15.8327Z" fill="white"/>
<path id="Vector_4" d="M21.1553 16.3874C21.0059 16.3874 20.8864 16.2679 20.8864 16.1185C20.8736 14.4667 20.3998 13.2076 19.4352 12.2643C18.4834 11.3338 17.2754 10.86 15.8541 10.8472C15.7047 10.8472 15.5852 10.7235 15.5852 10.5741C15.5852 10.4247 15.709 10.3052 15.8541 10.3052C17.4206 10.318 18.7523 10.843 19.8065 11.8759C20.865 12.9088 21.4071 14.3344 21.4242 16.11C21.4284 16.2636 21.3089 16.3874 21.1553 16.3874C21.1595 16.3874 21.1595 16.3874 21.1553 16.3874Z" fill="white"/>
<path id="Vector_5" d="M16.7931 18.713C16.7931 18.713 17.173 18.7472 17.3779 18.4953L17.7748 17.996C17.9669 17.7484 18.4321 17.5905 18.8846 17.8423C19.1364 17.9832 19.5931 18.2649 19.8748 18.474C20.1778 18.696 20.7925 19.2081 20.7967 19.2124C21.0912 19.46 21.1595 19.8228 20.9589 20.2112C20.9589 20.2112 20.9589 20.2154 20.9589 20.2197C20.7541 20.5825 20.4766 20.924 20.1309 21.2398C20.1266 21.2398 20.1266 21.2441 20.1224 21.2441C19.8364 21.4831 19.5547 21.6197 19.2815 21.6496C19.2474 21.6581 19.209 21.6581 19.1577 21.6581C19.0382 21.6581 18.9187 21.641 18.7992 21.6026L18.7907 21.5898C18.3638 21.4703 17.6553 21.1715 16.4773 20.5185C15.709 20.0959 15.073 19.6648 14.531 19.2338C14.245 19.0075 13.9548 18.7557 13.656 18.4569C13.6475 18.4484 13.6347 18.4356 13.6261 18.4271C13.6176 18.4185 13.6048 18.4057 13.5962 18.3972C13.5877 18.3886 13.5749 18.3758 13.5664 18.3673C13.5578 18.3588 13.545 18.346 13.5365 18.3374C13.242 18.0386 12.9859 17.7484 12.7597 17.4624C12.3286 16.9246 11.8975 16.2844 11.4749 15.5161C10.8219 14.3338 10.5231 13.6253 10.4036 13.2027L10.3908 13.1942C10.3524 13.0747 10.3353 12.9552 10.3353 12.8357C10.3353 12.7845 10.3353 12.746 10.3438 12.7119C10.378 12.4345 10.5146 12.157 10.7493 11.8711C10.7493 11.8668 10.7536 11.8668 10.7536 11.8625C11.0694 11.5125 11.4109 11.2394 11.7737 11.0345C11.7737 11.0345 11.778 11.0345 11.7822 11.0345C12.1664 10.8339 12.5292 10.9022 12.781 11.1967C12.781 11.1967 13.2975 11.8156 13.5194 12.1186C13.7286 12.4046 14.0103 12.857 14.1511 13.1088C14.4029 13.5613 14.245 14.0265 13.9975 14.2186L13.4981 14.6155C13.2462 14.8204 13.2804 15.2003 13.2804 15.2003C13.2804 15.2003 14.0188 18.0088 16.7931 18.713Z" fill="white"/>
</g>
</g>
</svg>
