<svg width="32" height="32" viewBox="0 0 32 32" fill="none" xmlns="http://www.w3.org/2000/svg">
<g id="Outlined/Warn">
<g id="Union">
<path d="M16 21C16.5523 21 17 21.4477 17 22V23C17 23.5523 16.5523 24 16 24C15.4477 24 15 23.5523 15 23V22C15 21.4477 15.4477 21 16 21Z" fill="#FF0000"/>
<path d="M16 8C15.391 8 14.8363 8.35485 14.6176 8.92325C14.3353 9.65716 14 10.663 14 11.3C14 13.6423 14.5038 16.5388 14.7962 18.0227C14.9093 18.5966 15.4151 19 16 19C16.5849 19 17.0907 18.5966 17.2038 18.0227C17.4962 16.5388 18 13.6423 18 11.3C18 10.663 17.6647 9.65716 17.3824 8.92324C17.1637 8.35484 16.609 8 16 8Z" fill="#FF0000"/>
<path fill-rule="evenodd" clip-rule="evenodd" d="M16 3C8.8203 3 3 8.8203 3 16C3 23.1797 8.8203 29 16 29C23.1797 29 29 23.1797 29 16C29 8.8203 23.1797 3 16 3ZM5 16C5 9.92487 9.92487 5 16 5C22.0751 5 27 9.92487 27 16C27 22.0751 22.0751 27 16 27C9.92487 27 5 22.0751 5 16Z" fill="#FF0000"/>
</g>
</g>
</svg>
