<svg width="47" height="62" viewBox="0 0 47 62" fill="none" xmlns="http://www.w3.org/2000/svg">
<g id="Group">
<path id="Vector" d="M30.8393 61.5902H1.4893C0.959297 61.5902 0.529297 61.1602 0.529297 60.6302V1.37016C0.529297 0.840156 0.959297 0.410156 1.4893 0.410156H45.5093C45.7693 0.410156 46.0093 0.510156 46.1893 0.690156C46.3693 0.870156 46.4693 1.12016 46.4693 1.37016L46.2993 45.9802C46.2993 46.2302 46.1993 46.4702 46.0193 46.6502L31.5193 61.3002C31.3393 61.4802 31.0893 61.5902 30.8393 61.5902ZM2.4593 59.6602H30.4293L44.3693 45.5802L44.5293 2.33016H2.4493V59.6702L2.4593 59.6602Z" fill="#FCD255"/>
<path id="Vector_2" d="M30.8391 61.5903C30.7191 61.5903 30.5891 61.5703 30.4691 61.5203C30.1091 61.3703 29.8691 61.0203 29.8691 60.6303V53.3403C29.8691 47.5803 32.4091 45.0103 38.0991 45.0103H45.3291C45.7191 45.0103 46.0691 45.2403 46.2191 45.6003C46.3691 45.9603 46.2891 46.3703 46.0191 46.6503L31.5191 61.3003C31.3391 61.4903 31.0891 61.5903 30.8391 61.5903ZM38.1091 46.9403C33.5091 46.9403 31.7991 48.6703 31.7991 53.3403V58.2903L43.0291 46.9403H38.1091Z" fill="#FCD255"/>
<path id="Subtract" fill-rule="evenodd" clip-rule="evenodd" d="M1.58984 1.37012H45.4198V16.1901H1.58984V1.37012ZM11.6289 12.9804H13.2889V11.5104H11.6289V12.9804ZM16.4889 12.9804V9.85037H17.9589C18.3389 9.85037 18.6389 9.94037 18.8589 10.1704C19.0689 10.3804 19.1789 10.7004 19.1789 11.0804V11.6504C19.1789 11.9004 19.1989 12.1504 19.2389 12.4104C19.2789 12.6904 19.3689 12.8804 19.5189 12.9904H21.1289V12.8804C20.9789 12.7704 20.8889 12.5804 20.8289 12.3504C20.7789 12.1004 20.7389 11.8804 20.7389 11.6504V11.0804C20.7389 10.6104 20.6489 10.2104 20.4389 9.89037C20.2389 9.57037 19.9189 9.34037 19.4489 9.21037C19.8689 9.02037 20.1589 8.79037 20.3689 8.49037C20.5989 8.20037 20.6889 7.85037 20.6889 7.45037C20.6889 6.71037 20.4489 6.15037 19.9389 5.73037C19.4389 5.34037 18.7489 5.13037 17.8689 5.13037H14.9389V12.9804H16.4889ZM17.8389 8.62037H16.4989V6.34037H17.8789C18.2889 6.34037 18.6089 6.45037 18.8289 6.66037C19.0389 6.87037 19.1489 7.15037 19.1489 7.51037C19.1489 7.89037 19.0389 8.17037 18.8289 8.34037C18.6089 8.53037 18.2889 8.62037 17.8389 8.62037ZM23.6089 11.2804H26.3389L26.8789 12.9804H28.4489L25.7789 5.13037H24.1889L21.5189 12.9804H23.0889L23.6089 11.2804ZM25.9589 10.0704H23.9989L24.9689 6.96037H24.9889L25.9589 10.0704ZM30.7289 9.85037V12.9704H29.1789V5.13037H32.1089C32.9889 5.13037 33.6789 5.34037 34.1889 5.73037C34.6889 6.15037 34.9389 6.71037 34.9389 7.45037C34.9389 7.85037 34.8489 8.20037 34.6189 8.49037C34.4089 8.79037 34.1089 9.02037 33.6989 9.21037C34.1689 9.34037 34.4789 9.57037 34.6889 9.89037C34.8989 10.2104 34.9889 10.6104 34.9889 11.0804V11.6504C34.9889 11.8804 35.0289 12.1004 35.0789 12.3504C35.1389 12.5804 35.2289 12.7704 35.3789 12.8804V12.9904H33.7689C33.6189 12.8804 33.5289 12.6904 33.4889 12.4104C33.4489 12.1504 33.4289 11.9004 33.4289 11.6504V11.0804C33.4289 10.7004 33.3189 10.3804 33.1089 10.1704C32.8889 9.94037 32.5889 9.85037 32.2089 9.85037H30.7289ZM32.0789 8.61037H30.7389V6.33037H32.1189C32.5289 6.33037 32.8489 6.44037 33.0689 6.65037C33.2789 6.86037 33.3889 7.14037 33.3889 7.50037C33.3889 7.88037 33.2789 8.16037 33.0689 8.33037C32.8489 8.52037 32.5289 8.61037 32.0789 8.61037Z" fill="#FCD255"/>
<path id="Vector_3" d="M18.4795 20.9102H11.2295C10.6995 20.9102 10.2695 20.4802 10.2695 19.9502C10.2695 19.4202 10.6995 18.9902 11.2295 18.9902H18.4795C19.0095 18.9902 19.4395 19.4202 19.4395 19.9502C19.4395 20.4802 19.0095 20.9102 18.4795 20.9102Z" fill="#FCD255"/>
<path id="Vector_4" d="M18.4795 24.9903H11.2295C10.6995 24.9903 10.2695 24.5603 10.2695 24.0303C10.2695 23.5003 10.6995 23.0703 11.2295 23.0703H18.4795C19.0095 23.0703 19.4395 23.5003 19.4395 24.0303C19.4395 24.5603 19.0095 24.9903 18.4795 24.9903Z" fill="#FCD255"/>
<path id="Vector_5" d="M14.8584 42.1101C14.3284 42.1101 13.8984 41.6801 13.8984 41.1501V14.8301C13.8984 14.3001 14.3284 13.8701 14.8584 13.8701C15.3884 13.8701 15.8184 14.3001 15.8184 14.8301V41.1501C15.8184 41.6801 15.3884 42.1101 14.8584 42.1101Z" fill="#FCD255"/>
<path id="Vector_6" d="M18.4795 29.0704H11.2295C10.6995 29.0704 10.2695 28.6404 10.2695 28.1104C10.2695 27.5804 10.6995 27.1504 11.2295 27.1504H18.4795C19.0095 27.1504 19.4395 27.5804 19.4395 28.1104C19.4395 28.6404 19.0095 29.0704 18.4795 29.0704Z" fill="#FCD255"/>
<path id="Vector_7" d="M18.4795 33.1402H11.2295C10.6995 33.1402 10.2695 32.7102 10.2695 32.1802C10.2695 31.6502 10.6995 31.2202 11.2295 31.2202H18.4795C19.0095 31.2202 19.4395 31.6502 19.4395 32.1802C19.4395 32.7102 19.0095 33.1402 18.4795 33.1402Z" fill="#FCD255"/>
<path id="Vector_8" d="M18.4795 37.2203H11.2295C10.6995 37.2203 10.2695 36.7903 10.2695 36.2603C10.2695 35.7303 10.6995 35.3003 11.2295 35.3003H18.4795C19.0095 35.3003 19.4395 35.7303 19.4395 36.2603C19.4395 36.7903 19.0095 37.2203 18.4795 37.2203Z" fill="#FCD255"/>
<path id="Vector_9" d="M14.8585 56.8502C13.1185 56.8502 11.3785 56.0702 10.2185 54.7702C9.17849 53.6102 8.70849 52.1602 8.86849 50.7002L9.98849 41.0302C10.0485 40.5402 10.4585 40.1802 10.9485 40.1802H18.7385C19.2285 40.1802 19.6385 40.5502 19.6985 41.0302L20.8185 50.7002C20.9885 52.1702 20.5085 53.6102 19.4685 54.7802C18.3085 56.0802 16.5785 56.8602 14.8485 56.8602L14.8585 56.8502ZM11.8085 42.1102L10.7885 50.9202C10.6885 51.8302 10.9885 52.7402 11.6585 53.4902C12.4585 54.3902 13.6585 54.9302 14.8585 54.9302C16.0585 54.9302 17.2385 54.3902 18.0385 53.5002C18.7085 52.7502 19.0185 51.8402 18.9085 50.9302L17.8885 42.1202H11.8085V42.1102Z" fill="#FCD255"/>
<path id="Vector_10" d="M14.8597 53.7601C13.8697 53.7601 12.8897 53.3101 12.2597 52.5601C11.7097 51.9201 11.4797 51.1301 11.6097 50.3401L11.8897 48.6201C11.9697 48.1501 12.3697 47.8101 12.8397 47.8101H16.8597C17.3297 47.8101 17.7297 48.1501 17.8097 48.6201L18.0897 50.3401C18.2197 51.1301 17.9897 51.9201 17.4397 52.5701C16.8097 53.3201 15.8397 53.7601 14.8597 53.7601ZM13.6597 49.7401L13.5097 50.6501C13.4597 50.9401 13.5997 51.1701 13.7197 51.3201C13.9897 51.6401 14.4297 51.8401 14.8497 51.8401C15.2697 51.8401 15.6997 51.6401 15.9597 51.3201C16.0797 51.1701 16.2197 50.9401 16.1797 50.6501L16.0297 49.7401H13.6497H13.6597Z" fill="#FCD255"/>
</g>
</svg>
