<svg width="46" height="62" viewBox="0 0 46 62" fill="none" xmlns="http://www.w3.org/2000/svg">
<g id="Group">
<path id="Vector" d="M30.3293 61.585H0.989304C0.459304 61.585 0.0292969 61.155 0.0292969 60.625V1.37503C0.0292969 0.845031 0.459304 0.415039 0.989304 0.415039H45.0093C45.2693 0.415039 45.5093 0.515038 45.6893 0.695038C45.8693 0.875038 45.9693 1.12503 45.9693 1.37503L45.7993 45.985C45.7993 46.235 45.6993 46.475 45.5193 46.655L31.0193 61.305C30.8393 61.485 30.5893 61.585 30.3293 61.585ZM1.9493 59.665H29.9293L43.8693 45.585L44.0293 2.33504H1.9393V59.665H1.9493Z" fill="#FCD255"/>
<path id="Vector_2" d="M30.3294 61.5849C30.2094 61.5849 30.0794 61.5649 29.9594 61.5149C29.5994 61.3649 29.3594 61.0149 29.3594 60.6249V53.3349C29.3594 47.5749 31.8994 45.0049 37.5894 45.0049H44.8194C45.2094 45.0049 45.5594 45.2349 45.7094 45.5949C45.8594 45.9549 45.7794 46.3649 45.5094 46.6449L31.0094 61.2949C30.8194 61.4849 30.5794 61.5749 30.3194 61.5749L30.3294 61.5849ZM37.5994 46.9349C32.9994 46.9349 31.2894 48.6749 31.2894 53.3349V58.2849L42.5194 46.9349H37.5994Z" fill="#FCD255"/>
<path id="Subtract" fill-rule="evenodd" clip-rule="evenodd" d="M1.08008 1.36523H44.9101V16.1852H1.08008V1.36523ZM10.459 12.695H12.009V11.315H10.459V12.695ZM17.619 10.645L15.639 4.84496V4.83496H13.599V12.685H15.149V10.345L14.999 6.89496H15.039L17.109 12.695H18.159L20.239 6.88496H20.279L20.129 10.355V12.695H21.679V4.84496H19.639L17.639 10.645H17.619ZM24.699 12.695V9.84496H26.229C27.119 9.84496 27.839 9.61496 28.339 9.16496C28.869 8.71496 29.109 8.10497 29.109 7.35497C29.109 6.60497 28.859 5.99497 28.339 5.54497C27.839 5.07497 27.129 4.84496 26.229 4.84496H23.129V12.695H24.699ZM26.229 8.63496H24.699V6.04497H26.229C26.679 6.04497 26.999 6.17496 27.219 6.42496C27.449 6.66496 27.559 6.96496 27.559 7.34496C27.559 7.72496 27.439 8.02496 27.219 8.27496C26.999 8.50496 26.679 8.63496 26.229 8.63496ZM35.519 9.78496H34.639V4.84496H33.069L29.839 10.055L29.909 10.995H33.089V12.695H34.639V10.995H35.519V9.78496ZM33.079 9.78496H31.289L32.909 7.16496L33.039 6.93497H33.079V9.78496Z" fill="#FCD255"/>
<path id="Vector_3" d="M22.9798 47.0349C15.1398 47.0349 8.75977 40.5949 8.75977 32.6749C8.75977 24.7549 15.1398 18.3149 22.9798 18.3149C30.8198 18.3149 37.2198 24.7549 37.2198 32.6749C37.2198 40.5949 30.8298 47.0349 22.9798 47.0349ZM22.9798 19.9249C16.0198 19.9249 10.3598 25.6449 10.3598 32.6749C10.3598 39.7049 16.0198 45.4249 22.9798 45.4249C29.9398 45.4249 35.6198 39.7049 35.6198 32.6749C35.6198 25.6449 29.9498 19.9249 22.9798 19.9249Z" fill="#FCD255"/>
<path id="Vector_4" d="M19.3988 40.505C18.7988 40.505 18.2388 40.185 17.9388 39.675C17.7788 39.365 17.7188 39.095 17.7188 38.815V26.545C17.7188 25.615 18.4687 24.855 19.3787 24.855C19.7087 24.855 20.0288 24.955 20.2988 25.135L25.4988 28.155C25.4988 28.155 25.5788 28.205 25.6188 28.245L30.7488 31.235C31.5488 31.715 31.8087 32.735 31.3487 33.525C31.2087 33.775 30.9988 33.985 30.7388 34.135L25.5888 37.135C25.5888 37.135 25.5288 37.185 25.4888 37.205L20.2188 40.285C19.9488 40.425 19.6687 40.505 19.3887 40.505H19.3988ZM19.3988 26.465C19.3988 26.465 19.3187 26.495 19.3187 26.555V38.825C19.3187 38.825 19.3187 38.885 19.3487 38.925C19.3487 38.905 19.3788 38.905 19.3988 38.905C19.4088 38.905 19.4288 38.905 19.4388 38.905L24.5687 35.905C24.5687 35.905 24.6287 35.855 24.6687 35.835L29.9388 32.755C29.9888 32.695 29.9688 32.645 29.9388 32.625L24.7287 29.585C24.7287 29.585 24.6487 29.535 24.6087 29.495L19.4588 26.505C19.4588 26.505 19.4187 26.475 19.3887 26.465H19.3988Z" fill="#FCD255"/>
</g>
</svg>
