<svg width="47" height="62" viewBox="0 0 47 62" fill="none" xmlns="http://www.w3.org/2000/svg">
<g id="Group">
<path id="Vector" d="M30.8293 61.5848H1.4893C0.959304 61.5848 0.529297 61.1548 0.529297 60.6248V1.36478C0.529297 0.834777 0.959304 0.404785 1.4893 0.404785H45.5093C45.7693 0.404785 46.0093 0.504784 46.1893 0.684784C46.3693 0.864784 46.4693 1.11478 46.4693 1.36478L46.2993 45.9748C46.2993 46.2248 46.1993 46.4648 46.0193 46.6448L31.5193 61.2948C31.3393 61.4748 31.0893 61.5848 30.8293 61.5848ZM2.4493 59.6548H30.4293L44.3693 45.5748L44.5293 2.3248H2.4393V59.6548H2.4493Z" fill="#FCD255"/>
<path id="Vector_2" d="M30.8294 61.5846C30.7094 61.5846 30.5794 61.5646 30.4594 61.5146C30.0994 61.3646 29.8594 61.0146 29.8594 60.6246V53.3346C29.8594 47.5746 32.3994 45.0146 38.0894 45.0146H45.3194C45.7094 45.0146 46.0594 45.2446 46.2094 45.6046C46.3594 45.9646 46.2794 46.3746 46.0094 46.6546L31.5094 61.3046C31.3194 61.4946 31.0794 61.5946 30.8194 61.5946L30.8294 61.5846ZM38.0994 46.9346C33.4994 46.9346 31.7894 48.6646 31.7894 53.3346V58.2846L43.0194 46.9346H38.0994Z" fill="#FCD255"/>
<path id="Subtract" fill-rule="evenodd" clip-rule="evenodd" d="M1.58008 1.375H45.4101V16.175H1.58008V1.375ZM13.0195 12.9848H14.6795V11.4948H13.0195V12.9848ZM16.3795 4.56482V12.9848H19.2395C20.2595 12.9848 21.0895 12.6448 21.7595 12.0048C22.4095 11.3448 22.7495 10.5148 22.7495 9.47482V8.07483C22.7495 7.05483 22.4095 6.20483 21.7595 5.54483C21.0895 4.90483 20.2695 4.56482 19.2395 4.56482H16.3795ZM18.0395 11.6748V5.86481H19.1395C19.7595 5.86481 20.2195 6.06481 20.5595 6.46481C20.8995 6.88481 21.0695 7.41483 21.0695 8.07483V9.47482C21.0695 10.1348 20.8995 10.6648 20.5595 11.0548C20.2195 11.4648 19.7595 11.6748 19.1395 11.6748H18.0395ZM29.7795 12.0948C30.4295 11.4148 30.7495 10.5648 30.7495 9.52481H30.7595V8.01483C30.7595 6.97483 30.4395 6.12481 29.7895 5.46481C29.1595 4.78481 28.2995 4.44482 27.2695 4.44482C26.2395 4.44482 25.4195 4.78481 24.7795 5.46481C24.1295 6.12481 23.8095 6.97483 23.8095 8.01483V9.52481C23.8095 10.5648 24.1395 11.4148 24.7795 12.0948C25.4095 12.7548 26.2595 13.0948 27.2795 13.0948C28.2995 13.0948 29.1395 12.7548 29.7795 12.0948ZM28.5995 6.37482C28.9195 6.80482 29.0895 7.33481 29.0895 7.99481H29.0995V9.52481C29.0995 10.1848 28.9295 10.7348 28.6095 11.1648C28.2895 11.5748 27.8595 11.7848 27.2795 11.7848C26.6995 11.7848 26.2695 11.5748 25.9495 11.1648C25.6295 10.7348 25.4595 10.1848 25.4595 9.52481V7.99481C25.4595 7.33481 25.6295 6.79482 25.9295 6.37482C26.2495 5.96482 26.6895 5.75482 27.2595 5.75482C27.8295 5.75482 28.2795 5.96482 28.5995 6.37482ZM38.3595 10.1448L38.3395 10.1048L38.3295 10.1248H36.7195C36.7195 10.6748 36.5895 11.1048 36.3495 11.3848C36.0895 11.6748 35.7095 11.8048 35.1895 11.8048C34.6695 11.8048 34.2395 11.5848 33.9395 11.1948C33.6195 10.7748 33.4695 10.2448 33.4695 9.60483V7.92484C33.4695 7.29484 33.6195 6.76483 33.9195 6.35483C34.1995 5.96483 34.5995 5.75482 35.0995 5.75482C35.6595 5.75482 36.0695 5.90481 36.3295 6.18481C36.5895 6.48481 36.7195 6.89481 36.7195 7.46481H38.3495L38.3695 7.42484C38.3695 6.50484 38.0895 5.78483 37.5095 5.23483C36.9295 4.71483 36.1295 4.44482 35.0995 4.44482C34.1295 4.44482 33.3495 4.76484 32.7295 5.42484C32.1195 6.08484 31.8195 6.91481 31.8195 7.93481V9.59482C31.8195 10.6348 32.1295 11.4648 32.7495 12.1048C33.3695 12.7648 34.2095 13.0848 35.1995 13.0848C36.1895 13.0848 36.9795 12.8248 37.5395 12.2948C38.0995 11.7648 38.3795 11.0548 38.3595 10.1448Z" fill="#FCD255"/>
<path id="Vector_3" d="M38.1594 26.4048H8.81938C8.28938 26.4048 7.85938 25.9749 7.85938 25.4449C7.85938 24.9149 8.28938 24.4849 8.81938 24.4849H38.1594C38.6894 24.4849 39.1194 24.9149 39.1194 25.4449C39.1194 25.9749 38.6894 26.4048 38.1594 26.4048Z" fill="#FCD255"/>
<path id="Vector_4" d="M38.1594 33.1949H8.81938C8.28938 33.1949 7.85938 32.7649 7.85938 32.2349C7.85938 31.7049 8.28938 31.2749 8.81938 31.2749H38.1594C38.6894 31.2749 39.1194 31.7049 39.1194 32.2349C39.1194 32.7649 38.6894 33.1949 38.1594 33.1949Z" fill="#FCD255"/>
<path id="Vector_5" d="M38.1594 39.9947H8.81938C8.28938 39.9947 7.85938 39.5647 7.85938 39.0347C7.85938 38.5047 8.28938 38.0747 8.81938 38.0747H38.1594C38.6894 38.0747 39.1194 38.5047 39.1194 39.0347C39.1194 39.5647 38.6894 39.9947 38.1594 39.9947Z" fill="#FCD255"/>
<path id="Vector_6" d="M23.4796 46.775H8.8096C8.2796 46.775 7.84961 46.345 7.84961 45.815C7.84961 45.285 8.2796 44.855 8.8096 44.855H23.4796C24.0096 44.855 24.4396 45.285 24.4396 45.815C24.4396 46.345 24.0096 46.775 23.4796 46.775Z" fill="#FCD255"/>
</g>
</svg>
