<svg width="46" height="62" viewBox="0 0 46 62" fill="none" xmlns="http://www.w3.org/2000/svg">
<g id="Group">
<path id="Vector" d="M30.3293 61.595H0.989288C0.459288 61.595 0.0292969 61.165 0.0292969 60.635V1.35501C0.0292969 0.825011 0.459288 0.39502 0.989288 0.39502H45.0093C45.2693 0.39502 45.5093 0.495018 45.6893 0.675018C45.8693 0.855018 45.9693 1.10501 45.9693 1.35501L45.7993 45.965C45.7993 46.215 45.6993 46.455 45.5193 46.635L31.0193 61.305C30.8393 61.485 30.5893 61.595 30.3393 61.595H30.3293ZM1.9493 59.665H29.9293L43.8693 45.565L44.0293 2.31503H1.93929V59.665H1.9493Z" fill="#FCD255"/>
<path id="Vector_2" d="M30.3294 61.5949C30.2094 61.5949 30.0794 61.5749 29.9594 61.5249C29.5994 61.3749 29.3594 61.0249 29.3594 60.6349V53.3349C29.3594 47.5749 31.8994 45.0049 37.5894 45.0049H44.8194C45.2094 45.0049 45.5594 45.2349 45.7094 45.5949C45.8594 45.9549 45.7794 46.3649 45.5094 46.6449L31.0094 61.3149C30.8294 61.5049 30.5794 61.6049 30.3294 61.6049V61.5949ZM37.5994 46.9249C32.9994 46.9249 31.2894 48.6549 31.2894 53.3249V58.2849L42.5194 46.9249H37.5894H37.5994Z" fill="#FCD255"/>
<path id="Subtract" fill-rule="evenodd" clip-rule="evenodd" d="M1.08008 1.36523H44.9101V16.1852H1.08008V1.36523ZM12.5195 12.9749H14.1795V11.5049H12.5195V12.9749ZM17.5395 12.9749V9.91495H17.5495H19.2095C20.1595 9.91495 20.9095 9.66495 21.4695 9.19495C22.0095 8.70495 22.2895 8.07494 22.2895 7.25494C22.2895 6.43494 22.0095 5.79493 21.4695 5.30493C20.9095 4.81493 20.1595 4.55493 19.2095 4.55493H15.8795V12.9749H17.5395ZM19.1995 8.61493H17.5395V8.60492V5.85492H19.1995C19.6695 5.85492 20.0295 5.98494 20.2495 6.25494C20.4895 6.51494 20.5995 6.86494 20.5995 7.25494C20.5995 7.64494 20.4895 7.98492 20.2495 8.23492C19.9995 8.50492 19.6695 8.61493 19.1995 8.61493ZM23.4995 4.55493V12.9749H26.3595C27.3795 12.9749 28.2295 12.6549 28.8795 11.9949C29.5295 11.3549 29.8695 10.5049 29.8695 9.46494V8.08493C29.8695 7.04493 29.5295 6.19493 28.8795 5.55493C28.2295 4.89493 27.3895 4.55493 26.3595 4.55493H23.4995ZM25.1795 11.6649V5.85492V5.84494H26.2795C26.8795 5.84494 27.3395 6.04494 27.6795 6.46494C28.0095 6.86494 28.1795 7.39493 28.1795 8.05493V9.45493C28.1795 10.1149 28.0195 10.6449 27.6795 11.0549C27.3395 11.4549 26.8795 11.6649 26.2795 11.6649H25.1795ZM32.8395 9.47495H36.3395V9.46494V8.16495H32.8395V5.84494H36.9195V4.54492H31.1795V12.9649H32.8395V9.47495Z" fill="#FCD255"/>
<path id="Vector_3" d="M30.9302 37.6751C30.0002 37.6751 28.8602 37.8051 27.5302 38.0551C25.6802 36.0551 23.7502 33.1652 22.3902 30.3152C23.7402 24.5552 23.0602 23.7451 22.7602 23.3651C22.4402 22.9551 21.9902 22.2852 21.4902 22.2852C21.2702 22.2852 20.6902 22.3751 20.4602 22.4551C19.8602 22.6651 19.5602 23.1151 19.3002 23.7051C18.5902 25.4051 19.5802 28.2752 20.5702 30.5052C19.7102 33.9752 18.2702 38.1151 16.7402 41.4951C12.9102 43.2651 10.8702 45.0052 10.7002 46.6652C10.6302 47.2652 10.7802 48.1552 11.8202 48.9452C12.1002 49.1752 12.4402 49.2852 12.7902 49.2852C13.6902 49.2852 14.5702 48.6052 15.6102 47.1352C16.3602 46.0552 17.1802 44.6051 18.0202 42.7951C20.7302 41.6051 24.0802 40.5152 26.9502 39.9052C28.5402 41.4552 29.9802 42.2451 31.2102 42.2451C32.1102 42.2451 32.8902 41.8251 33.4502 41.0151C34.0302 40.2051 34.1602 39.4451 33.8402 38.8251C33.4502 38.0551 32.4902 37.6751 30.9102 37.6751H30.9302ZM12.8202 47.5652C12.3502 47.1852 12.3702 46.9452 12.3902 46.8452C12.4502 46.2752 13.3302 45.2751 15.4902 44.0551C13.8502 47.1151 12.9702 47.5052 12.8202 47.5652ZM21.1202 24.1352C21.1802 24.1152 22.1902 25.2651 21.2302 27.4251C19.7702 25.9351 21.0202 24.1752 21.1202 24.1352ZM19.0402 40.5052C20.0502 38.0552 21.0202 35.3152 21.7302 32.7852C22.8702 34.8452 24.2302 36.8452 25.6002 38.4452C23.4502 38.9552 21.1502 39.6952 19.0402 40.5052ZM32.0902 40.0352C31.7702 40.4752 31.1002 40.4752 30.8602 40.4752C30.3202 40.4752 30.1302 40.1551 29.3102 39.5151C29.9802 39.4451 30.6202 39.4251 31.1402 39.4251C32.0402 39.4251 32.1902 39.5551 32.3202 39.6151C32.3002 39.6851 32.2402 39.8251 32.1002 40.0451L32.0902 40.0352Z" fill="#FCD255"/>
</g>
</svg>
