<svg width="24" height="24" viewBox="-2.5 -2.5 24 24" fill="none" xmlns="http://www.w3.org/2000/svg">
<g id="Group 168">
<g id="Intersect">
<path d="M1.36507 14.997C1.53597 16.4353 2.69476 17.5766 4.1407 17.661C5.76228 17.7556 7.3987 17.8052 9.20778 17.8052C11.0168 17.8052 12.6533 17.7556 14.2749 17.661C15.7208 17.5766 16.8796 16.4353 17.0505 14.997C17.2372 13.4255 17.4156 11.8024 17.4156 10.1422C17.4156 8.48203 17.2372 6.85897 17.0505 5.28746C16.8796 3.84918 15.7208 2.70784 14.2749 2.6235C12.6533 2.5289 11.0168 2.47932 9.20778 2.47932C7.39871 2.47932 5.76228 2.5289 4.1407 2.6235C2.69476 2.70784 1.53597 3.84918 1.36507 5.28746C1.17834 6.85897 1 8.48203 1 10.1422C1 11.8024 1.17834 13.4255 1.36507 14.997Z" fill="none"/>
</g>
<path id="Rectangle 12" d="M16.8281 8.86977L1.58917 8.86976L1.80308 3.44604L9.1188 2.91543L16.8281 3.44604L16.8281 8.86977Z" fill="none"/>
<path id="Line 3" d="M6.1875 1.00063L6.1875 4.41391" stroke="#415167" stroke-width="1.5" stroke-linecap="round"/>
<path id="Line 4" d="M12.2187 1.00063L12.2187 4.41391" stroke="#415167" stroke-width="1.5" stroke-linecap="round"/>
<path id="Intersect_2" d="M1.36507 14.997C1.53597 16.4353 2.69476 17.5766 4.1407 17.661C5.76228 17.7556 7.3987 17.8052 9.20778 17.8052C11.0168 17.8052 12.6533 17.7556 14.2749 17.661C15.7208 17.5766 16.8796 16.4353 17.0505 14.997C17.2372 13.4255 17.4156 11.8024 17.4156 10.1422C17.4156 8.48203 17.2372 6.85897 17.0505 5.28746C16.8796 3.84918 15.7208 2.70784 14.2749 2.6235C12.6533 2.5289 11.0168 2.47932 9.20778 2.47932C7.39871 2.47932 5.76228 2.5289 4.1407 2.6235C2.69476 2.70784 1.53597 3.84918 1.36507 5.28746C1.17834 6.85897 1 8.48203 1 10.1422C1 11.8024 1.17834 13.4255 1.36507 14.997Z" stroke="#415167" stroke-width="1.5"/>
<path id="Vector 4" d="M1.39258 8.35944H17.1034" stroke="#415167" stroke-width="1.5"/>
</g>
</svg>
