<svg width="24" height="25" viewBox="0 0 24 25" fill="none" xmlns="http://www.w3.org/2000/svg">
<g id="24 / basic / more-vertical">
<path id="icon" fill-rule="evenodd" clip-rule="evenodd" d="M10 5.03445C10 6.14663 10.8954 7.04823 12 7.04823C13.1046 7.04823 14 6.14663 14 5.03445C14 3.92227 13.1046 3.02067 12 3.02067C10.8954 3.02067 10 3.92227 10 5.03445ZM12 14.0965C10.8954 14.0965 10 13.1949 10 12.0827C10 10.9705 10.8954 10.0689 12 10.0689C13.1046 10.0689 14 10.9705 14 12.0827C14 13.1949 13.1046 14.0965 12 14.0965ZM12 21.1447C10.8954 21.1447 10 20.2431 10 19.1309C10 18.0187 10.8954 17.1171 12 17.1171C13.1046 17.1171 14 18.0187 14 19.1309C14 20.2431 13.1046 21.1447 12 21.1447Z" fill="#415167"/>
</g>
</svg>
