<svg width="24" height="24" viewBox="-2 -2 24 24" fill="none" xmlns="http://www.w3.org/2000/svg">
<g id="Group">
<path id="Vector 345 (Stroke)" fill-rule="evenodd" clip-rule="evenodd" d="M14.0318 4.80493C14.4157 4.96051 14.6008 5.39783 14.4452 5.78172L14.4445 5.78355L14.4432 5.78667L14.4391 5.79668L14.4246 5.8312C14.4123 5.86043 14.3945 5.90182 14.3717 5.95352C14.3261 6.05678 14.2598 6.20182 14.1754 6.37344C14.0079 6.71412 13.7631 7.17138 13.4601 7.6177C13.1632 8.05507 12.7794 8.52884 12.3215 8.86003C11.8568 9.19613 11.2198 9.44716 10.5129 9.21153C9.84487 8.98884 9.53975 8.45132 9.37416 8.1596C9.366 8.14523 9.35818 8.13146 9.35067 8.11835C9.15653 7.77929 9.10397 7.74048 9.02343 7.71494C8.94247 7.68927 8.80012 7.68692 8.55317 7.8224C8.30577 7.95812 8.03731 8.18908 7.77542 8.47023C7.51876 8.74577 7.29645 9.03892 7.1366 9.26686C7.05737 9.37981 6.99514 9.47439 6.95339 9.53959C6.93256 9.57213 6.91692 9.59721 6.90693 9.61341L6.89627 9.63085L6.89445 9.63385C6.6824 9.98951 6.22205 10.1063 5.86628 9.89435C5.51042 9.68236 5.39379 9.22204 5.60578 8.86618L5.60676 8.86454L5.60834 8.86191L5.61325 8.85376L5.63001 8.82636C5.6442 8.80334 5.66439 8.77099 5.69014 8.73078C5.74157 8.65045 5.81555 8.53812 5.90852 8.40556C6.09304 8.14246 6.35899 7.79012 6.67783 7.44783C6.99144 7.11116 7.38574 6.75195 7.83171 6.50729C8.27813 6.26239 8.85978 6.08945 9.4768 6.28509C10.1562 6.50051 10.4642 7.0421 10.6312 7.33588C10.6385 7.34875 10.6456 7.36113 10.6524 7.373C10.8486 7.71566 10.9024 7.76019 10.9873 7.7885C11.0663 7.81485 11.1973 7.82186 11.4425 7.64458C11.6944 7.46239 11.9623 7.15341 12.219 6.77529C12.4696 6.40612 12.68 6.01514 12.8294 5.71146C12.9034 5.56089 12.961 5.43471 12.9997 5.34731C13.0189 5.30367 13.0334 5.26987 13.0428 5.24773L13.0529 5.22354L13.055 5.21847M14.0318 4.80493C13.648 4.64939 13.2106 4.83476 13.055 5.21847L14.0318 4.80493Z" fill="#415167"/>
<path id="Union" fill-rule="evenodd" clip-rule="evenodd" d="M10 0.25C10.4142 0.25 10.75 0.585786 10.75 1V1.75L17.5 1.75H19C19.4142 1.75 19.75 2.08579 19.75 2.5C19.75 2.91421 19.4142 3.25 19 3.25H18.25V8.5C18.25 11.3995 15.8995 13.75 13 13.75H10.75V15.8059C10.7883 15.8708 10.8401 15.9549 10.9053 16.0527C11.0725 16.3035 11.3232 16.6376 11.6553 16.9697C12.3236 17.6379 13.2691 18.25 14.5 18.25C14.9142 18.25 15.25 18.5858 15.25 19C15.25 19.4142 14.9142 19.75 14.5 19.75C12.7309 19.75 11.4264 18.8621 10.5947 18.0303C10.3643 17.8 10.1662 17.5702 10 17.3582C9.83379 17.5702 9.63569 17.8 9.40533 18.0303C8.57358 18.8621 7.26907 19.75 5.5 19.75C5.08579 19.75 4.75 19.4142 4.75 19C4.75 18.5858 5.08579 18.25 5.5 18.25C6.73093 18.25 7.67642 17.6379 8.34467 16.9697C8.67676 16.6376 8.92754 16.3035 9.09471 16.0527C9.15994 15.9549 9.21173 15.8708 9.25 15.8059V13.75H7C4.10051 13.75 1.75 11.3995 1.75 8.5L1.75 3.25H1C0.585786 3.25 0.25 2.91421 0.25 2.5C0.25 2.08579 0.585786 1.75 1 1.75H2.5L9.25 1.75V1C9.25 0.585786 9.58579 0.25 10 0.25ZM3.25 3.25L10 3.25H16.75V8.5C16.75 10.5711 15.0711 12.25 13 12.25H7C4.92893 12.25 3.25 10.5711 3.25 8.5L3.25 3.25Z" fill="#415167"/>
</g>
</svg>
