<svg width="24" height="24" viewBox="0 0 24 24" fill="none" xmlns="http://www.w3.org/2000/svg">
<g id="Outlined/Folder">
<path id="Union" fill-rule="evenodd" clip-rule="evenodd" d="M2.25 6C2.25 4.75736 3.25736 3.75 4.5 3.75H8.19722C8.94952 3.75 9.65204 4.12598 10.0693 4.75192L10.9014 6L19.5 6C20.7426 6 21.75 7.00736 21.75 8.25V18C21.75 19.2426 20.7426 20.25 19.5 20.25H4.5C3.45152 20.25 2.57054 19.5329 2.32084 18.5623C2.27459 18.3826 2.25 18.1942 2.25 18V6ZM3.75 6C3.75 5.58579 4.08579 5.25 4.5 5.25H8.19722C8.44799 5.25 8.68216 5.37533 8.82126 5.58397L9.86951 7.15634C10.003 7.36312 10.2355 7.5 10.5 7.5L19.5 7.5C19.9142 7.5 20.25 7.83579 20.25 8.25V9.12803C20.0154 9.04512 19.763 9 19.5 9H4.5C4.23702 9 3.98458 9.04512 3.75 9.12803V6ZM3.75 18V11.25C3.75 10.8358 4.08579 10.5 4.5 10.5H19.5C19.9142 10.5 20.25 10.8358 20.25 11.25V18C20.25 18.4142 19.9142 18.75 19.5 18.75H4.5C4.08579 18.75 3.75 18.4142 3.75 18Z" fill="#415167"/>
</g>
</svg>
