<svg width="24" height="24" viewBox="0 0 24 24" fill="none" xmlns="http://www.w3.org/2000/svg">
<g id="Outlined/Email">
<g id="Union">
<path d="M6.39747 7.614C6.04622 7.39447 5.58351 7.50125 5.36397 7.8525C5.14444 8.20375 5.25122 8.66647 5.60247 8.886L11.6025 12.636C11.8457 12.788 12.1543 12.788 12.3975 12.636L18.3975 8.886C18.7488 8.66647 18.8555 8.20376 18.636 7.8525C18.4165 7.50125 17.9538 7.39447 17.6025 7.614L12 11.1156L6.39747 7.614Z" fill="#415167"/>
<path d="M8.7 12.15C9.03137 12.3985 9.09853 12.8686 8.85 13.2L6.6 16.2C6.35147 16.5314 5.88137 16.5985 5.55 16.35C5.21863 16.1015 5.15147 15.6314 5.4 15.3L7.65 12.3C7.89853 11.9686 8.36863 11.9015 8.7 12.15Z" fill="#415167"/>
<path d="M15.15 13.2C14.9015 12.8686 14.9686 12.3985 15.3 12.15C15.6314 11.9015 16.1015 11.9686 16.35 12.3L18.6 15.3C18.8485 15.6314 18.7814 16.1015 18.45 16.35C18.1186 16.5985 17.6485 16.5314 17.4 16.2L15.15 13.2Z" fill="#415167"/>
<path fill-rule="evenodd" clip-rule="evenodd" d="M5.25 4.5C3.59315 4.5 2.25 5.84315 2.25 7.5V16.5C2.25 18.1569 3.59315 19.5 5.25 19.5H18.75C20.4069 19.5 21.75 18.1569 21.75 16.5V7.5C21.75 5.84315 20.4069 4.5 18.75 4.5H5.25ZM3.75 7.5C3.75 6.67157 4.42157 6 5.25 6H18.75C19.5784 6 20.25 6.67157 20.25 7.5V16.5C20.25 17.3284 19.5784 18 18.75 18H5.25C4.42157 18 3.75 17.3284 3.75 16.5V7.5Z" fill="#415167"/>
</g>
</g>
</svg>
