<svg width="24" height="24" viewBox="-2 -2 24 24" fill="none" xmlns="http://www.w3.org/2000/svg">
<g id="Group 249">
<g id="Intersect">
<path d="M8.96447 1.14177C8.00178 1.04863 7.01021 1 5.99745 1C4.98467 1 3.9931 1.04863 3.0304 1.14177C1.97107 1.24426 1.16067 2.31798 1.11282 3.62536C1.03892 5.64456 1 7.74066 1 9.89045C1 12.0402 1.03892 14.1364 1.11282 16.1555C1.16067 17.4629 1.97107 18.5366 3.0304 18.6391C3.9931 18.7323 4.98467 18.7809 5.99745 18.7809C7.01021 18.7809 8.00178 18.7323 8.96447 18.6391C10.0238 18.5367 10.8342 17.4629 10.8821 16.1556C10.9084 15.4351 10.9303 14.7049 10.9476 13.9659V5.81501C10.9303 5.07604 10.9084 4.34581 10.8821 3.62536C10.8342 2.31798 10.0238 1.24426 8.96447 1.14177Z" fill="none"/>
</g>
<g id="Vector">
<path d="M12.7909 10.018C12.7909 10.8636 12.933 12.1226 13.0521 13.0298C13.1307 13.6284 13.7279 14.0096 14.2901 13.7895C15.9647 13.1337 17.5293 12.0913 18.5524 10.4801C18.7316 10.1979 18.7316 9.83805 18.5525 9.55586C17.5294 7.9446 15.9648 6.90221 14.2902 6.24646C13.728 6.02634 13.1308 6.40758 13.0522 7.00611C12.933 7.91335 12.7909 9.17238 12.7909 10.018Z" fill="none"/>
<path d="M12.7909 10.018C12.7909 10.8636 12.933 12.1226 13.0521 13.0298C13.1307 13.6284 13.7279 14.0096 14.2901 13.7895C15.9647 13.1337 17.5293 12.0913 18.5524 10.4801C18.7316 10.1979 18.7316 9.83805 18.5525 9.55586C17.5294 7.9446 15.9648 6.90221 14.2902 6.24646C13.728 6.02634 13.1308 6.40758 13.0522 7.00611C12.933 7.91335 12.7909 9.17238 12.7909 10.018Z" stroke="#415167" stroke-width="1.5" stroke-linecap="round" stroke-linejoin="round"/>
</g>
<path id="Intersect_2" d="M10.8821 3.62536C10.8342 2.31798 10.0238 1.24426 8.96447 1.14177C8.00178 1.04863 7.01021 1 5.99745 1C4.98467 1 3.9931 1.04863 3.0304 1.14177C1.97107 1.24426 1.16067 2.31798 1.11282 3.62536C1.03892 5.64455 1 7.74066 1 9.89045C1 12.0402 1.03892 14.1364 1.11282 16.1555C1.16067 17.4629 1.97107 18.5366 3.0304 18.6391C3.9931 18.7323 4.98467 18.7809 5.99745 18.7809C7.01021 18.7809 8.00178 18.7323 8.96447 18.6391C10.0238 18.5367 10.8342 17.4629 10.8821 16.1556" stroke="#415167" stroke-width="1.5" stroke-linecap="round"/>
<path id="Vector_2" d="M5.48387 10.0187L12.791 10.0187" stroke="#415167" stroke-width="1.5" stroke-linecap="round" stroke-linejoin="round"/>
</g>
</svg>
