<svg width="24" height="24" viewBox="0 0 24 24" fill="none" xmlns="http://www.w3.org/2000/svg">
<g id="Outlined/SeePassword-2">
<g id="Union">
<path fill-rule="evenodd" clip-rule="evenodd" d="M20.0303 5.03033C20.3232 4.73744 20.3232 4.26256 20.0303 3.96967C19.7374 3.67678 19.2626 3.67678 18.9697 3.96967L16.1095 6.82981C16.0938 6.8219 16.0776 6.81449 16.061 6.80761C14.8896 6.31989 13.5343 6 12 6C7.38535 6 4.4398 8.87975 3.15518 10.483C2.43695 11.3794 2.43868 12.623 3.15616 13.5182C3.82645 14.3546 4.93364 15.5211 6.4843 16.455L3.96967 18.9697C3.67678 19.2626 3.67678 19.7374 3.96967 20.0303C4.26257 20.3232 4.73744 20.3232 5.03033 20.0303L20.0303 5.03033ZM7.58231 15.357L9.41547 13.5239C9.15169 13.0772 9 12.5558 9 12C9 10.3431 10.3431 9 12 9C12.5559 9 13.0772 9.15168 13.5239 9.41547L14.9501 7.98925C14.0748 7.68774 13.0923 7.5 12 7.5C8.05668 7.5 5.49588 9.96059 4.32577 11.4209C4.04766 11.768 4.04762 12.232 4.32663 12.5801C4.9736 13.3874 6.06157 14.5181 7.58231 15.357ZM12.3887 10.5507C12.2648 10.5176 12.1346 10.5 12 10.5C11.1716 10.5 10.5 11.1716 10.5 12C10.5 12.1346 10.5176 12.2648 10.5507 12.3887L12.3887 10.5507Z" fill="#415167"/>
<path d="M17.7115 8.53456C17.9685 8.20976 18.4402 8.15484 18.765 8.41189C19.676 9.13287 20.3683 9.88839 20.8442 10.4822C21.5618 11.3776 21.5629 12.6208 20.8448 13.517C19.5602 15.1203 16.6147 18 12 18C11.137 18 10.3295 17.8988 9.5788 17.7227C9.17553 17.6282 8.92525 17.2246 9.0198 16.8214C9.11436 16.4181 9.51793 16.1678 9.9212 16.2624C10.5628 16.4128 11.2553 16.5 12 16.5C15.9433 16.5 18.5041 14.0394 19.6742 12.5791C19.9525 12.2318 19.9525 11.7682 19.6737 11.4202C19.2515 10.8934 18.6375 10.2239 17.8342 9.58811C17.5094 9.33105 17.4544 8.85937 17.7115 8.53456Z" fill="#415167"/>
<path d="M14.3719 12.0429C14.7624 12.1809 14.9671 12.6094 14.8291 12.9999C14.5276 13.8529 13.8529 14.5276 12.9999 14.8291C12.6094 14.9671 12.1809 14.7624 12.0429 14.3719C11.9048 13.9814 12.1095 13.5529 12.5001 13.4148C12.9257 13.2644 13.2644 12.9257 13.4148 12.5001C13.5529 12.1095 13.9814 11.9048 14.3719 12.0429Z" fill="#415167"/>
</g>
</g>
</svg>
