<svg width="24" height="24" viewBox="0 0 24 24" fill="none" xmlns="http://www.w3.org/2000/svg">
<g id="Outlined/SeePassword-2">
<g id="Union">
<path fill-rule="evenodd" clip-rule="evenodd" d="M20.0302 5.03033C20.3231 4.73744 20.3231 4.26256 20.0302 3.96967C19.7374 3.67678 19.2625 3.67678 18.9696 3.96967L16.1094 6.82981C16.0937 6.8219 16.0775 6.81449 16.061 6.80761C14.8895 6.31989 13.5342 6 11.9999 6C7.38526 6 4.43971 8.87975 3.15509 10.483C2.43686 11.3794 2.43859 12.623 3.15607 13.5182C3.82636 14.3546 4.93355 15.5211 6.48421 16.455L3.96958 18.9697C3.67669 19.2626 3.67669 19.7374 3.96958 20.0303C4.26248 20.3232 4.73735 20.3232 5.03024 20.0303L20.0302 5.03033ZM7.58221 15.357L9.41538 13.5239C9.1516 13.0772 8.99991 12.5558 8.99991 12C8.99991 10.3431 10.3431 9 11.9999 9C12.5558 9 13.0771 9.15168 13.5238 9.41547L14.95 7.98925C14.0747 7.68774 13.0922 7.5 11.9999 7.5C8.05659 7.5 5.49579 9.96059 4.32567 11.4209C4.04757 11.768 4.04753 12.232 4.32654 12.5801C4.97351 13.3874 6.06148 14.5181 7.58221 15.357ZM12.3886 10.5507C12.2647 10.5176 12.1345 10.5 11.9999 10.5C11.1715 10.5 10.4999 11.1716 10.4999 12C10.4999 12.1346 10.5175 12.2648 10.5506 12.3887L12.3886 10.5507Z" fill="#415167"/>
<path d="M17.7114 8.53456C17.9684 8.20976 18.4401 8.15484 18.7649 8.41189C19.6759 9.13287 20.3682 9.88839 20.8441 10.4822C21.5617 11.3776 21.5628 12.6208 20.8447 13.517C19.5601 15.1203 16.6146 18 11.9999 18C11.1369 18 10.3295 17.8988 9.57871 17.7227C9.17544 17.6282 8.92516 17.2246 9.01971 16.8214C9.11426 16.4181 9.51783 16.1678 9.92111 16.2624C10.5627 16.4128 11.2552 16.5 11.9999 16.5C15.9432 16.5 18.504 14.0394 19.6742 12.5791C19.9524 12.2318 19.9524 11.7682 19.6736 11.4202C19.2514 10.8934 18.6374 10.2239 17.8341 9.58811C17.5093 9.33105 17.4543 8.85937 17.7114 8.53456Z" fill="#415167"/>
<path d="M14.3718 12.0429C14.7624 12.1809 14.967 12.6094 14.829 12.9999C14.5275 13.8529 13.8528 14.5276 12.9998 14.8291C12.6093 14.9671 12.1808 14.7624 12.0428 14.3719C11.9047 13.9814 12.1094 13.5529 12.5 13.4148C12.9256 13.2644 13.2643 12.9257 13.4148 12.5001C13.5528 12.1095 13.9813 11.9048 14.3718 12.0429Z" fill="#415167"/>
</g>
</g>
</svg>
