<svg width="24" height="24" viewBox="0 0 24 24" fill="none" xmlns="http://www.w3.org/2000/svg">
<g id="Outlined/NotSeePassword-2">
<g id="Union">
<path fill-rule="evenodd" clip-rule="evenodd" d="M12.0003 9C10.3435 9 9.00034 10.3431 9.00034 12C9.00034 13.6569 10.3435 15 12.0003 15C13.6572 15 15.0003 13.6569 15.0003 12C15.0003 10.3431 13.6572 9 12.0003 9ZM10.5003 12C10.5003 11.1716 11.1719 10.5 12.0003 10.5C12.8288 10.5 13.5003 11.1716 13.5003 12C13.5003 12.8284 12.8288 13.5 12.0003 13.5C11.1719 13.5 10.5003 12.8284 10.5003 12Z" fill="#415167"/>
<path fill-rule="evenodd" clip-rule="evenodd" d="M12.0003 6C7.38569 6 4.44014 8.87975 3.15552 10.483C2.43774 11.3788 2.43774 12.6212 3.15552 13.517C4.44014 15.1203 7.38569 18 12.0003 18C16.615 18 19.5605 15.1203 20.8452 13.517C21.5629 12.6212 21.5629 11.3788 20.8452 10.483C19.5605 8.87975 16.615 6 12.0003 6ZM4.32611 11.4209C5.49622 9.96059 8.05702 7.5 12.0003 7.5C15.9437 7.5 18.5045 9.96059 19.6746 11.4209C19.9531 11.7686 19.9531 12.2314 19.6746 12.5791C18.5045 14.0394 15.9437 16.5 12.0003 16.5C8.05702 16.5 5.49622 14.0394 4.32611 12.5791C4.04755 12.2314 4.04755 11.7686 4.32611 11.4209Z" fill="#415167"/>
</g>
</g>
</svg>
